<?xml version="1.0" encoding="utf-8"?>
<!-- Generator: Adobe Illustrator 16.0.0, SVG Export Plug-In . SVG Version: 6.00 Build 0)  -->
<!DOCTYPE svg PUBLIC "-//W3C//DTD SVG 1.1//EN" "http://www.w3.org/Graphics/SVG/1.1/DTD/svg11.dtd">
<svg version="1.1" id="圖層_1" xmlns="http://www.w3.org/2000/svg" xmlns:xlink="http://www.w3.org/1999/xlink" x="0px" y="0px"
	 width="384.561px" height="378.301px" viewBox="0 0 384.561 378.301" enable-background="new 0 0 384.561 378.301"
	 xml:space="preserve">
<text transform="matrix(1 0 0 1 499.5 72.1626)" display="none" font-family="'HoboStd'" font-size="73.6178">Hello ! Halal</text>
<text transform="matrix(1 0 0 1 740 131.4526)" display="none" font-family="'HoboStd'" font-size="60">2</text>
<path display="none" d="M355.4,137.431c0-30.806,14.734-63.908,48.027-63.908s48.027,33.102,48.027,63.908
	c0,44.965-26.024,64.292-48.027,64.292C381.424,201.722,355.4,182.396,355.4,137.431z"/>
<path display="none" d="M528.229,111.701c0-15.116-5.356-36.546-24.302-36.546s-24.302,21.431-24.302,36.546
	c0,15.307,4.977,37.121,24.302,37.121C523.252,148.821,528.229,127.008,528.229,111.701z"/>
<path display="none" d="M265.166,214.375c-2.196,0-8.129,0.219-8.129-3.295c0-1.098,0.22-2.197,0.659-3.076
	c7.689-20.212,14.06-40.862,14.06-62.611c0-14.939-5.931-19.992-20.65-19.992c-22.188,0-45.916,10.546-45.916,36.029
	c0,15.818,2.856,32.953,9.008,47.453c0.439,0.879,0.878,2.416,0.878,3.295c0,3.076-5.272,2.197-7.03,2.197h-32.293
	c-6.153,0-6.153-63.271-6.153-72.717c0-16.037,4.395-110.065,14.939-110.065h29.878c1.318,0,6.59-0.658,6.59,1.977
	c0,2.856-14.939,34.711-14.939,57.999c0,5.493,1.977,10.765,5.272,10.765c6.811,0,6.811-6.59,36.689-6.59
	c10.765,0,19.333,2.417,19.333-6.811c0-20.87-19.333-52.286-19.333-55.142c0-2.855,6.591-2.197,7.909-2.197h28.779
	c8.348,0,19.113,63.271,19.113,110.065c0,10.544,0,72.717-7.03,72.717H265.166z M266.428,64.786
	c3.053,2.737,7.457,3.352,11.076,1.525c1.275-0.644,2.504-1.38,3.781-2.013c2.604-1.289,5.229-2.537,7.844-3.804
	c0.904-0.438,1.467-1.389,1.285-2.154c-0.172-0.729-0.926-1.353-1.724-1.379c-0.312-0.011-0.63,0.054-0.936,0.125
	c-2.058,0.486-4.109,0.998-6.173,1.461c-0.287,0.066-0.625-0.082-0.941-0.132c0.086-0.328,0.083-0.727,0.272-0.975
	c1.517-1.979,3.093-3.915,4.605-5.894c1.573-2.06,3.106-4.147,4.636-6.24c0.571-0.779,0.394-1.671-0.381-2.261
	c-0.677-0.516-1.769-0.47-2.279,0.121c-0.764,0.878-1.503,1.776-2.262,2.658c-1.499,1.749-3.003,3.491-4.51,5.231
	c-0.319,0.37-0.729,0.667-1.207,0.354c-0.51-0.334-0.396-0.842-0.164-1.311c0.406-0.827,0.817-1.651,1.224-2.479
	c1.286-2.612,2.577-5.219,3.851-7.836c0.432-0.888,0.148-1.771-0.66-2.214c-0.759-0.415-1.632-0.155-2.129,0.65
	c-0.367,0.599-0.719,1.209-1.07,1.816c-1.646,2.825-3.29,5.654-4.941,8.474c-0.377,0.643-1.078,0.795-1.403,0.261
	c-0.179-0.297-0.204-0.808-0.085-1.146c1.023-2.94,2.125-5.85,3.129-8.797c0.168-0.491,0.157-1.207-0.083-1.654
	c-0.62-1.151-2.295-0.968-2.84,0.299c-1.237,2.876-2.562,5.713-3.847,8.569c-0.242,0.538-0.594,0.96-1.23,0.702
	c-0.648-0.263-0.585-0.814-0.396-1.372c0.553-1.636,1.105-3.272,1.635-4.916c0.288-0.9-0.063-1.646-0.855-1.921
	c-0.75-0.261-1.489,0.08-1.791,0.911c-1.728,4.751-3.528,9.478-5.119,14.277c-1.154,3.481-0.287,6.7,2.146,9.65
	C265.34,63.79,265.878,64.293,266.428,64.786z"/>
<path display="none" d="M801.982,6.267c-2.618,0-2.317-25.064-2.317-26.786c0-3.516-0.301-37.035,3.065-37.035h7.109
	c0.821,0,3.066-0.224,3.066,1.422c0,0.449-3.141,11.223-3.141,29.853c0,20.575,2.843,30.676,2.843,31.648
	c0,1.272-1.947,0.898-2.769,0.898H801.982z"/>
<path display="none" d="M825.103,20.709c0-2.619,0.448-5.761-3.144-5.761c-4.414,0-9.053,3.741-9.053,8.305
	c0,4.189,3.668,6.659,7.634,6.659c4.413,0,4.563-2.245,4.563-5.911V20.709z"/>
<path display="none" d="M754.759,42.267c-2.618,0-2.32-25.064-2.32-26.786c0-3.516-0.298-37.035,3.068-37.035h7.107
	c0.824,0,3.068-0.224,3.068,1.422c0,0.449-3.143,11.223-3.143,29.853c0,20.575,2.842,30.676,2.842,31.648
	c0,1.272-1.943,0.898-2.768,0.898H754.759z"/>
<text transform="matrix(1 0 0 1 -74.3335 -104.7144)" display="none" font-family="'HoboStd'" font-size="72">Halal</text>
<path display="none" d="M747.026,45.403c0-6.444,5.373-11.707,11.816-11.707c6.766,0,12.242,5.155,12.242,11.813
	c0,6.66-5.477,11.814-12.137,11.814C752.292,57.325,747.026,51.955,747.026,45.403z"/>
<path fill-rule="evenodd" clip-rule="evenodd" fill="#72AF93" d="M113.251,347.301c-41.925-16.757-69.521-57.22-69.167-101.862
	c0.115-15.739,1.388-31.46,1.388-47.154c0-31.992-0.506-63.999-0.772-96.001c-0.098-11.065,6.54-21.262,14.979-23.208
	c8.024-1.862,17.868,2.532,22.025,10.274c1.638,3.017,2.551,6.48,3.348,9.847c5.248,22.683,10.225,45.434,15.731,68.063
	c0.755,3.154,3.864,5.769,5.896,8.644c2.821-2.447,6.762-4.366,8.29-7.446c12.12-24.636,23.522-49.648,35.673-74.25
	c12.65-25.595,25.757-50.923,38.946-76.238c4.893-9.452,14.569-12.052,24.176-7.294c8.399,4.16,13.281,15.165,9.942,23.084
	c-4.935,11.831-10.193,23.517-15.18,35.316c-9.938,23.334-19.788,46.69-29.599,70.063c-2.099,4.959-3.018,10.456,2.41,13.638
	c5.789,3.4,10.236-0.21,13.73-4.784c6.183-8.052,12.316-16.13,18.487-24.184c19.504-25.457,38.925-50.936,58.527-76.287
	c6.657-8.6,16.76-10.121,25.082-4.304c7.8,5.465,9.496,15.354,3.981,24.187c-4.122,6.553-8.424,13.003-12.694,19.44
	c-19.843,30.051-39.726,60.092-59.495,90.166c-4.504,6.863-2.577,14.525,4.284,15.131c3.807,0.311,8.966-1.94,11.73-4.768
	c24.02-24.468,47.354-49.552,71.539-73.857c4.023-4.059,11.148-7.448,16.728-7.259c14.394,0.495,20.765,17.917,10.916,29.487
	c-22.341,26.264-43.869,53.195-65.786,79.836c-4.121,5.014-6.574,10.548-0.905,15.571c5.75,5.113,10.895,1.793,15.472-2.79
	c13.45-13.451,26.891-26.898,40.538-40.155c7.474-7.235,16.555-7.413,23.134-0.939c6.248,6.126,6.485,15.089-0.236,22.126
	c-38.464,40.269-76.307,81.127-115.915,120.282c-28.713,28.396-64.721,35.565-105.723,25.954
	C128.391,353.174,120.802,350.326,113.251,347.301z M106.557,262.625c3.391,0,3.391-29.998,3.391-35.082
	c0-22.578-5.191-53.104-9.22-53.104H86.844c-0.637,0-3.817-0.317-3.817,1.06c0,1.38,9.326,16.535,9.326,26.605
	c0,4.45-4.132,3.284-9.326,3.284c-14.414,0-14.414,3.18-17.701,3.18c-1.591,0-2.543-2.544-2.543-5.193
	c0-11.234,7.207-26.603,7.207-27.982c0-1.271-2.544-0.953-3.18-0.953H52.396c-5.089,0-7.208,45.363-7.208,53.104
	c0,4.557,0,35.082,2.968,35.082h15.579c0.849,0,3.392,0.424,3.392-1.06c0-0.427-0.21-1.167-0.423-1.591
	c-2.969-6.996-4.346-15.261-4.346-22.895c0-12.294,11.447-17.381,22.153-17.381c7.101,0,9.964,2.437,9.964,9.644
	c0,10.494-3.074,20.455-6.785,30.209c-0.212,0.423-0.316,0.953-0.316,1.483c0,1.694,2.862,1.59,3.921,1.59H106.557z M118.74,243.121
	c0,6.36,1.801,19.504,27.345,19.504c9.435,0,19.397-0.213,19.397-2.439c0-3.604-0.85-6.357-0.85-11.023
	c0-3.708-0.213-35.083-2.437-41.23c-5.404-14.838-19.926-14.731-23.315-14.731c-9.752,0-18.55,5.087-18.55,12.931
	c0,4.558,3.709,8.691,7.102,8.691c2.331,0,0.741-9.114,11.551-9.114c4.667,0,10.281,2.86,10.281,8.267
	c0,3.498-2.435,4.027-5.51,4.558C131.883,220.545,118.74,229.766,118.74,243.121z M150.323,241.744c0,5.193-0.211,8.373-6.463,8.373
	c-5.62,0-10.812-3.497-10.812-9.434c0-6.464,6.572-11.764,12.827-11.764c5.085,0,4.449,4.45,4.449,8.16V241.744z M201.084,243.121
	c0,6.36,1.802,19.504,27.345,19.504c9.433,0,19.399-0.213,19.399-2.439c0-3.604-0.85-6.357-0.85-11.023
	c0-3.708-0.211-35.083-2.437-41.23c-5.405-14.838-19.925-14.731-23.318-14.731c-9.752,0-18.549,5.087-18.549,12.931
	c0,4.558,3.712,8.691,7.101,8.691c2.333,0,0.741-9.114,11.553-9.114c4.665,0,10.283,2.86,10.283,8.267
	c0,3.498-2.438,4.027-5.512,4.558C214.229,220.545,201.084,229.766,201.084,243.121z M232.671,241.744
	c0,5.193-0.212,8.373-6.464,8.373c-5.619,0-10.814-3.497-10.814-9.434c0-6.464,6.572-11.764,12.824-11.764
	c5.088,0,4.455,4.45,4.455,8.16V241.744z M177.155,174.494c-6.087,0-8.521-2.738-8.521,22.213c0,16.433,6.85,63.902,13.845,63.902
	c4.111,0,10.652-0.608,10.652-2.13c0-3.043-2.435-21.302-2.435-36.517c0-21.3,12.019-42.146,12.019-44.578
	c0-2.588-3.345-2.891-5.326-2.891H177.155z M260.293,179.138c-5.867,0-8.214-2.639-8.214,21.413
	c0,15.839,6.603,61.598,13.345,61.598c3.964,0,10.27-0.584,10.27-2.052c0-2.934-2.348-20.533-2.348-35.2
	c0-20.531,11.587-40.627,11.587-42.972c0-2.494-3.226-2.787-5.134-2.787H260.293z M253.245,284.544
	c-2.124,0.08-3.35-0.883-3.718-2.967c-0.268-1.51-0.426-3.046-0.555-4.574c-0.141-1.668-0.148-3.346-0.298-5.012
	c-0.076-0.823-0.323-1.635-0.534-2.441c-0.048-0.183-0.273-0.447-0.412-0.445c-0.165,0.005-0.373,0.229-0.473,0.407
	c-0.155,0.272-0.272,0.577-0.338,0.883c-0.422,1.919-0.78,3.852-1.244,5.762c-0.613,2.515-1.414,4.969-3.05,7.036
	c-2.153,2.719-5.074,4.222-8.346,5.145c-0.148,0.04-0.29,0.104-0.435,0.158c1.116,0.143,2.206,0.232,3.275,0.126
	c2.75-0.272,5.268-1.184,6.882-3.555c0.918-1.346,1.598-2.884,2.183-4.415c0.594-1.557,0.943-3.211,1.414-4.871
	c0,0.496-0.02,0.951,0.002,1.4c0.083,1.646,0.079,3.308,0.286,4.94c0.517,4.069,2.816,5.778,6.82,4.995
	c1.514-0.294,2.974-0.909,4.431-1.453c2.034-0.762,4.042-1.588,6.126-1.204c0.629-0.963,1.198-1.836,1.771-2.712
	c-0.01-0.002-0.069-0.03-0.126-0.026c-2.408,0.145-4.561-0.338-6.481-1.984c-1.35-1.16-3.075-1.666-4.897-1.139
	c-1.796,0.521-2.785,1.924-3.575,3.497c-0.073,0.149-0.088,0.324-0.172,0.642c2.664-1.808,5.172-2.002,7.724,0.151
	C257.406,283.783,255.396,284.461,253.245,284.544z M224.723,279.426c-1.466,1.363-1.917,3.093-1.667,5
	c0.256,1.987,1.408,3.339,3.265,4.067c3.73,1.462,9.863-1.438,9.489-6.819c-0.229-3.294-0.429-6.592-0.652-9.886
	c-0.081-1.192-0.037-2.35,0.739-3.319c-0.689-0.931-1.357-1.829-1.941-2.62c-0.434,0.495-0.906,0.956-1.277,1.486
	c-0.179,0.251-0.284,0.658-0.226,0.956c0.136,0.682,0.479,1.327,0.583,2.011c0.356,2.343,0.68,4.69,0.95,7.044
	c0.161,1.411,0.279,2.835,0.271,4.255c-0.007,1.455-0.707,2.609-2.003,3.319c-1.654,0.904-3.452,1.094-5.273,0.79
	c-1.796-0.298-2.677-1.4-2.607-3.229c0.039-1.02,0.29-2.034,0.451-3.083C224.808,279.403,224.75,279.401,224.723,279.426z
	 M236.426,270.551c-0.771,2.25-0.373,3.89,1.588,4.701c0.248,0.104,0.482,0.244,0.729,0.355c1.323,0.594,2.346,1.509,3.025,2.796
	c0.322,0.608,0.625,1.222,0.955,1.87C243.67,276.223,240.027,270.643,236.426,270.551z"/>
<path display="none" fill-rule="evenodd" clip-rule="evenodd" fill="#D95A6A" d="M240,430.343c2.333-1.533,4.667-1.357,7,0
	C244.667,430.343,242.333,430.343,240,430.343z"/>
<path display="none" fill-rule="evenodd" clip-rule="evenodd" fill="#D93F63" d="M505,172.343c-1.318-2-1.476-4,0-6
	C505,168.343,505,170.343,505,172.343z"/>
<path display="none" fill-rule="evenodd" clip-rule="evenodd" fill="#DA4064" d="M505,185.343c-1.474-2-1.312-4,0-6
	C505,181.343,505,183.343,505,185.343z"/>
<path display="none" fill-rule="evenodd" clip-rule="evenodd" fill="#B13350" d="M260,430.343c0.804-1.064,1.926-0.99,3.064-0.854
	c0.666,0.336,0.645,0.619-0.064,0.854C262,430.343,261,430.343,260,430.343z"/>
<path display="none" fill-rule="evenodd" clip-rule="evenodd" fill="#932942" d="M505,163.343c-1.102-0.667-1.249-1.333,0-2
	C505,162.009,505,162.676,505,163.343z"/>
<path display="none" fill-rule="evenodd" clip-rule="evenodd" fill="#893742" d="M232,430.343c0.667-1.326,1.333-1.117,2,0
	C233.333,430.343,232.667,430.343,232,430.343z"/>
<path display="none" fill-rule="evenodd" clip-rule="evenodd" fill="#952A43" d="M263,430.343c0.008-0.287,0.03-0.57,0.064-0.854
	c0.806-0.08,1.619-0.176,1.936,0.854C264.333,430.343,263.667,430.343,263,430.343z"/>
<path display="none" fill="none" stroke="#C52546" stroke-width="8" stroke-miterlimit="10" d="M545.115,163.343
	c-0.857-1.015-0.408-2.228-0.494-3.354c-0.605-7.935-0.299-16.007-2.023-23.777c-8.506-38.318-28.27-69.728-59.279-93.749
	c-25.303-19.599-54.248-29.861-86.049-32.081c9.078-21.319,11.67-43.712,10.777-66.729c-0.363-9.409-2.656-17.334-12.932-20.31
	c-5,0-10,0-15,0c-5.186,1.075-10.535,0.742-15.711,1.625c-24.326,4.152-46.097,13.71-63.554,31.58
	c-4.56,4.668-9.396,9.359-11.762,15.657c-4.598-9.463-12.043-16.759-20.088-23.159c-17.387-13.83-37.263-22.319-59.601-24.49
	c-4.426-0.43-8.903-0.307-13.284-1.214c-4.667,0-9.333,0-14,0c-8.739,3.312-11.699,9.88-12.162,18.936
	c-1.202,23.534,1.577,46.307,10.478,68.158c-16.7,1.099-32.884,4.628-48.401,10.898C97.805,35.166,71.394,58.212,53.264,90.275
	c-9.938,17.575-17.696,36.125-18.815,56.805c-0.238,4.408,0.158,8.953-1.334,13.262c0,1.667,0,3.333,0,5c0,0.667,0,1.333,0,2
	c0,1,0,2,0,3c0,2,0,4,0,6c0,6,0,12,0,18c0,1,0,2,0,3c0,1.666,0,3.333,0,5c1.478,0.586,0.912,1.953,1.106,2.999
	c1.117,6.034,0.937,12.258,2.542,18.224c-2.272,2.287-1.714,5.162-1.187,8.064c5.398,29.717,15.031,57.924,30.208,84.11
	c15.682,27.059,35.604,50.448,60.465,69.575c24.025,18.484,50.69,31.799,79.645,40.414c12.07,3.592,24.261,6.975,37.004,7.83
	c8.072,0.541,16.199,0.488,24.217,1.783c1.667,0,3.333,0,5,0c0.667-0.615,1.333-0.615,2,0c2,0,4,0,6,0c2.333-0.799,4.667-0.799,7,0
	c0.667,0,1.333,0,2,0c3.667,0,7.333,0,11,0c0.819-0.793,1.852-0.396,2.795-0.5c0.762,0.049,1.582-0.164,2.205,0.5
	c1.666,0,3.333,0,5,0c1.016-0.857,2.229-0.422,3.357-0.492c9.775-0.598,19.645-0.436,29.295-2.123
	c27.584-4.818,53.813-13.633,78.381-27.268c28.162-15.627,52.455-35.742,72.191-61.268c12.998-16.811,23.863-34.883,32.113-54.479
	c8.105-19.25,14.094-39.129,17.381-59.787c0.373-2.342,0.395-4.537-1.219-6.212c0.451-1.141,0.299-2.41,0.576-3.582
	c1.395-5.864,0.297-12.135,2.924-17.79c0-2.667,0-5.334,0-8c0-1.334,0-2.667,0-4c-0.791-2-0.791-4,0-6c0-2.334,0-4.667,0-7
	c-0.791-2-0.791-4,0-6c0-1,0-2,0-3c-0.615-0.667-0.615-1.333,0-2C545.115,165.343,545.115,164.343,545.115,163.343z"/>
</svg>
